<svg version="1.1" id="Layer_1" xmlns="http://www.w3.org/2000/svg" xmlns:xlink="http://www.w3.org/1999/xlink" x="0px" y="0px"
	 width="100%" viewBox="0 0 512 512" enable-background="new 0 0 512 512" xml:space="preserve">
<path fill="#000000" opacity="1.000000" stroke="none" 
	d="
M299.000000,513.000000 
	C199.357529,513.000000 100.215050,513.000000 1.036289,513.000000 
	C1.036289,342.399170 1.036289,171.798325 1.036289,1.098744 
	C171.559158,1.098744 342.118378,1.098744 512.838806,1.098744 
	C512.838806,171.666550 512.838806,342.333252 512.838806,513.000000 
	C441.798309,513.000000 370.649139,513.000000 299.000000,513.000000 
M341.206329,313.722168 
	C340.970062,313.970276 340.733795,314.218384 340.484283,314.521423 
	C340.484283,314.521423 340.428436,314.530029 339.837799,314.857513 
	C332.045105,321.102417 323.065308,322.133179 313.577362,320.538635 
	C309.850586,331.801788 302.883484,338.884430 290.886230,340.216064 
	C289.903107,340.325226 288.495636,341.583466 288.249603,342.552582 
	C286.674774,348.755371 285.369781,355.026642 283.987854,361.222443 
	C294.058777,364.927856 298.057526,370.586884 298.150055,381.213440 
	C298.232239,390.648651 298.167297,400.085175 298.167297,409.452911 
	C299.148438,409.723602 299.609192,409.961853 300.068878,409.959778 
	C303.391937,409.944885 306.714783,409.881378 310.926270,409.979279 
	C311.759430,409.986328 312.592590,409.998383 313.425751,409.999664 
	C322.617249,410.013947 323.695526,408.710968 323.961151,399.287903 
	C324.166534,392.002502 324.323090,384.630005 325.544769,377.474396 
	C329.929504,351.793091 342.790497,330.616486 360.602020,311.925262 
	C395.111542,275.711212 407.371063,232.429688 398.733185,183.555573 
	C388.612823,126.293373 340.324341,79.405434 282.018341,69.119461 
	C276.746826,68.564964 271.468292,67.494453 266.205353,67.566483 
	C256.137604,67.704262 246.078781,68.492050 235.158295,68.955681 
	C233.834198,69.067757 232.484131,69.050652 231.189789,69.310791 
	C197.135971,76.154915 168.470795,92.412933 146.321167,119.250404 
	C116.759445,155.068695 106.733665,196.096741 115.724289,241.600388 
	C121.102081,268.818695 134.259262,292.003479 153.325439,312.085724 
	C175.925308,335.889923 189.382889,363.811005 190.003586,397.146667 
	C190.234146,409.529694 191.231339,410.543488 204.925461,409.957550 
	C208.363998,409.957550 211.802551,409.957550 215.732452,409.957550 
	C215.732452,400.456207 215.703323,391.506439 215.739624,382.556976 
	C215.788055,370.616852 219.094589,365.579163 229.916138,361.059082 
	C228.569687,355.000427 227.294281,348.875122 225.777786,342.810089 
	C225.518753,341.774139 224.302231,340.298615 223.403915,340.203949 
	C211.207260,338.918610 204.064667,331.803314 200.340256,320.350159 
	C190.513718,322.377716 181.547119,320.618652 173.397354,314.539276 
	C173.397354,314.539276 173.406631,314.715057 173.261322,314.102417 
	C172.892303,313.938690 172.523285,313.774933 172.111343,313.840546 
	C172.111343,313.840546 172.343674,313.862213 172.232651,313.213898 
	C171.853653,313.024933 171.474655,312.835938 171.081161,312.916382 
	C171.081161,312.916382 171.350937,312.917328 171.260193,312.295349 
	C170.820984,311.869812 170.381790,311.444305 169.970139,311.023834 
	C169.970139,311.023834 169.968536,311.051819 169.815918,310.517731 
	C169.527695,310.287781 169.239471,310.057861 168.797012,309.245178 
	C167.858170,308.224518 166.919342,307.203827 166.131256,305.496094 
	C165.783997,304.951385 165.436752,304.406677 165.148270,303.911346 
	C165.148270,303.911346 165.218079,303.879364 165.109528,303.094360 
	C162.003738,295.246643 162.293182,287.317078 164.986938,279.572388 
	C141.351639,267.390717 136.393143,246.271408 150.962967,221.526474 
	C138.879211,205.483582 139.420853,193.164734 152.609055,178.927917 
	C153.581833,177.877792 153.978546,175.629654 153.660736,174.149368 
	C149.729523,155.838638 159.881363,138.602036 177.821106,133.482697 
	C179.824066,132.911148 181.885117,132.543076 183.644287,132.143143 
	C183.857437,131.461197 183.967712,131.295456 183.946991,131.148148 
	C181.265228,112.089310 192.887131,100.706245 211.667892,103.828568 
	C212.787338,104.014671 214.642990,102.970963 215.348175,101.944496 
	C221.026154,93.679688 228.950516,90.441780 237.656204,93.092888 
	C245.574081,95.504089 250.972260,103.040977 250.977020,112.146378 
	C251.012344,179.642578 251.058014,247.138931 250.930115,314.634918 
	C250.910202,325.139221 245.815445,332.989136 236.362198,337.835236 
	C235.226593,338.417358 234.078232,338.974579 232.969833,339.526428 
	C234.369095,345.806549 235.522827,351.832733 237.165588,357.722504 
	C237.545364,359.084167 239.576675,360.914215 240.882904,360.942963 
	C252.366180,361.195679 263.857330,361.089386 275.849243,361.089386 
	C277.580109,353.851593 279.289886,346.702057 281.034149,339.408325 
	C267.565125,334.110596 262.826447,324.095520 262.885345,310.281860 
	C263.151062,247.953140 263.001343,185.622665 263.001495,123.292816 
	C263.001495,119.126381 262.898254,114.956810 263.023438,110.794113 
	C263.377747,99.009300 274.024536,90.650543 285.533539,92.755859 
	C292.552216,94.039764 296.772461,98.548195 299.878754,104.286636 
	C321.095123,100.535858 329.859039,108.649529 330.303040,132.091949 
	C330.583374,132.264954 330.843628,132.533600 331.146973,132.597336 
	C353.557831,137.306122 363.950531,152.618439 360.143494,175.043091 
	C359.911407,176.410324 360.832916,178.454514 361.895844,179.482605 
	C368.932098,186.288391 372.840942,194.491440 370.947601,204.140961 
	C369.717621,210.409393 366.485443,216.284943 363.891785,223.006546 
	C377.661285,240.853607 373.327301,267.650421 348.891266,279.944153 
	C352.422272,288.674622 351.509918,297.344391 347.911987,305.891968 
	C347.911987,305.891968 347.892883,305.827789 347.328949,306.091400 
	C347.081512,306.659332 346.834076,307.227264 346.762421,307.816406 
	C346.762421,307.816406 346.749176,307.639862 346.240051,307.911011 
	C346.099884,308.265808 345.959717,308.620636 345.378662,309.127747 
	C345.117065,309.342957 344.998047,309.619537 344.548676,310.166992 
	C344.400543,310.462250 344.252441,310.757538 344.023499,311.030579 
	C344.023499,311.030579 344.071289,311.099426 343.543152,311.345001 
	C343.237701,311.830444 342.932281,312.315857 342.800781,312.818909 
	C342.800781,312.818909 342.787231,312.644592 342.239838,312.811554 
	C342.020050,313.111389 341.800262,313.411224 341.732117,313.728363 
	C341.732117,313.728363 341.705200,313.578094 341.206329,313.722168 
M243.239227,151.245804 
	C243.215988,137.749741 243.251373,124.253189 243.139313,110.757866 
	C243.097260,105.692917 240.273727,102.246513 235.673752,100.587067 
	C231.278488,99.001488 227.144943,99.877480 223.804504,103.382683 
	C220.300568,107.059464 219.897430,111.381310 221.692734,115.866066 
	C222.827972,118.701912 224.920883,121.837578 220.927994,123.481003 
	C216.727509,125.209862 215.899750,120.981880 214.371002,118.399445 
	C214.125854,117.985336 213.983643,117.459351 213.955307,116.975632 
	C213.639328,111.581665 209.648682,110.689667 205.545715,110.507835 
	C198.979675,110.216858 192.508362,115.620255 191.133163,122.113541 
	C189.839828,128.220428 191.922104,131.817535 197.705688,133.795013 
	C199.888992,134.541519 202.206909,135.292191 203.987625,136.660294 
	C204.964874,137.411087 205.652863,139.753418 205.190659,140.826599 
	C204.713135,141.935379 202.726547,142.845184 201.320953,142.973267 
	C199.983185,143.095184 198.529861,142.129211 197.150269,141.583542 
	C185.526489,136.986115 172.384979,140.892517 165.273193,151.072495 
	C157.641449,161.996735 158.909851,175.686920 168.600220,185.664429 
	C170.747253,187.875076 172.715668,190.091339 169.830475,192.782043 
	C166.976532,195.443649 164.971008,192.740555 163.146194,190.931107 
	C161.298645,189.099121 159.703247,187.012848 157.797409,184.806412 
	C151.544128,190.891235 148.558670,197.598831 150.912033,206.087921 
	C153.166306,214.219604 158.473526,219.117538 166.612762,221.074768 
	C169.222321,221.702286 171.276230,223.371399 169.925400,225.949066 
	C169.205750,227.322296 166.409683,228.225189 164.551773,228.223587 
	C162.357971,228.221710 160.165192,227.013458 158.008591,226.339645 
	C143.814224,241.198318 149.940659,266.324982 168.220612,272.295868 
	C173.178009,269.045166 177.456345,265.926208 182.076874,263.444305 
	C183.147995,262.868927 185.386871,264.467651 187.088425,265.065979 
	C186.473297,266.752533 186.259796,268.808960 185.137039,270.027954 
	C183.857086,271.417664 181.683014,271.937439 180.042252,273.048920 
	C171.414719,278.893524 168.096710,290.959106 172.407883,300.553406 
	C176.593231,309.867706 187.187820,315.429382 196.502747,313.431213 
	C199.106689,312.872650 200.450089,311.848480 201.056488,309.108612 
	C201.653809,306.409821 202.756470,303.639954 204.358429,301.421997 
	C205.187057,300.274750 207.578842,300.256531 209.264389,299.728210 
	C209.772568,301.468201 210.619995,303.198608 210.669586,304.951569 
	C210.702621,306.119720 209.444473,307.268738 209.028336,308.514557 
	C206.753006,315.326172 207.442932,321.719666 212.527725,327.053955 
	C217.505493,332.276001 223.592163,334.228912 230.704849,332.048615 
	C238.849289,329.551971 243.228073,323.116425 243.237686,313.273529 
	C243.274292,275.781860 243.235703,238.290100 243.262756,200.798416 
	C243.274063,185.139465 243.379364,169.480591 243.716019,153.542160 
	C243.609314,153.092911 243.502609,152.643661 243.239227,151.245804 
M348.424561,193.043945 
	C346.699707,192.653076 344.974823,192.262207 343.250000,191.871338 
	C343.948944,189.854050 344.106659,187.335709 345.434906,185.900955 
	C353.914307,176.741348 356.115448,165.669876 351.174377,155.117355 
	C346.236938,144.572586 336.386871,138.995834 323.890503,140.021133 
	C320.983276,140.259659 318.085083,141.281021 315.312469,142.296448 
	C312.562531,143.303604 309.596954,144.059143 308.797302,140.636887 
	C308.453522,139.165558 310.832703,136.832504 312.344971,135.243195 
	C313.162903,134.383575 314.749756,134.233582 316.007935,133.818649 
	C322.070190,131.819321 323.761719,129.186295 322.974854,122.924202 
	C322.195160,116.719292 316.923004,111.351036 310.325012,110.666756 
	C307.974365,110.422966 304.964386,110.652618 303.230682,111.959747 
	C301.412262,113.330757 300.762085,116.252815 299.605988,118.499405 
	C299.377869,118.942703 299.210052,119.421280 298.947784,119.842049 
	C297.555817,122.075127 296.332214,125.085686 292.946625,123.401375 
	C289.736115,121.804138 290.727905,119.166245 291.963226,116.540993 
	C294.334900,111.500717 293.574921,106.722763 290.039856,103.198326 
	C286.617523,99.786263 282.482300,98.970619 278.106079,100.672234 
	C273.083405,102.625221 270.894623,106.508011 270.900024,111.996590 
	C270.966736,179.631851 270.927429,247.267197 270.972717,314.902496 
	C270.979584,325.150574 279.224152,333.255432 288.950623,332.890656 
	C299.132538,332.508789 306.890320,323.947906 306.094635,313.577393 
	C305.885742,310.854584 304.243225,308.257050 303.913422,305.523071 
	C303.679199,303.581390 304.543396,301.507172 304.917328,299.492126 
	C306.783569,300.345490 309.221680,300.738312 310.372772,302.167603 
	C311.843872,303.994293 312.432831,306.612061 313.113983,308.972015 
	C313.819550,311.416656 314.819153,312.809570 317.713257,313.247192 
	C326.246307,314.537445 333.260742,311.870178 338.591309,305.424713 
	C348.221588,293.780212 344.366486,278.115570 330.261688,270.760193 
	C327.758972,269.455078 325.585663,267.632202 327.263092,265.103088 
	C328.099274,263.842346 331.800842,263.224182 333.407562,263.990356 
	C336.917877,265.664307 339.843536,268.524506 343.165833,270.653931 
	C344.337860,271.405151 346.225342,272.121033 347.353271,271.698212 
	C364.745209,265.178467 369.673615,239.113663 356.107788,226.266556 
	C353.393799,227.109146 350.752441,228.349350 348.022278,228.592758 
	C346.731506,228.707809 344.463165,227.143387 344.116058,225.920364 
	C343.775726,224.721176 344.971619,222.597153 346.119904,221.602112 
	C347.262695,220.611786 349.231110,220.635147 350.757050,220.015808 
	C358.788269,216.756149 363.155853,210.559555 363.840332,202.125748 
	C364.406342,195.151596 361.563660,189.372925 356.237610,184.974091 
	C353.573669,187.827805 351.312775,190.249756 348.424561,193.043945 
M270.489807,368.958496 
	C258.512756,368.958832 246.524475,369.271912 234.562805,368.843079 
	C227.299698,368.582703 223.748688,372.903259 223.484146,378.306458 
	C222.975311,388.698700 223.335876,399.133545 223.335876,409.637268 
	C245.946609,409.637268 268.123871,409.637268 290.357483,409.637268 
	C290.357483,398.860443 290.785187,388.400452 290.199860,377.997467 
	C289.838715,371.578430 286.153046,369.009125 279.967468,368.963257 
	C277.139709,368.942291 274.311676,368.958923 270.489807,368.958496 
M222.503540,460.800323 
	C248.957077,460.800323 275.410614,460.809509 301.864105,460.781769 
	C303.846222,460.779694 305.869934,460.721161 307.801971,460.330841 
	C312.960541,459.288666 316.329956,455.380737 315.937714,451.174042 
	C315.518036,446.672821 311.423553,443.249023 306.135254,443.002319 
	C305.139160,442.955811 304.139069,442.993103 303.140839,442.993103 
	C272.361572,442.992950 241.582306,442.992645 210.803040,442.994171 
	C209.472198,442.994232 208.130997,442.907684 206.812408,443.039520 
	C202.113098,443.509308 198.399902,446.977112 198.031708,451.144226 
	C197.660049,455.350891 200.664948,459.011688 205.609299,460.180206 
	C207.207504,460.557922 208.881287,460.734558 210.525894,460.773254 
	C214.184113,460.859344 217.845749,460.800262 222.503540,460.800323 
M315.143677,429.433838 
	C316.974670,422.712738 313.351288,417.857300 305.865265,417.829590 
	C273.243439,417.708801 240.620804,417.732208 207.998779,417.821930 
	C202.057358,417.838287 197.864014,421.829102 198.015854,426.669952 
	C198.168274,431.528931 202.399475,435.059082 208.422638,435.066437 
	C240.712265,435.105774 273.002045,435.059540 305.291595,435.120209 
	C309.464050,435.128052 312.728027,433.804230 315.143677,429.433838 
M242.500000,484.052002 
	C262.478119,484.050903 282.456238,484.068512 302.434296,484.036438 
	C307.891998,484.027679 311.524902,480.922699 311.620667,476.370728 
	C311.716217,471.828094 308.136169,468.287262 302.700165,468.270630 
	C272.233856,468.177277 241.766937,468.177887 211.300583,468.269958 
	C205.861588,468.286407 202.280075,471.817169 202.374100,476.356720 
	C202.469086,480.942657 206.059784,484.013031 211.532883,484.036560 
	C221.521774,484.079529 231.510941,484.050812 242.500000,484.052002 
M256.507599,505.044434 
	C260.000458,505.029663 263.500641,505.154541 266.984680,504.971436 
	C274.569916,504.572876 281.046295,499.148041 282.488617,492.250183 
	C265.478424,492.250183 248.450638,492.250183 231.158066,492.250183 
	C233.062088,498.451660 236.982666,502.425110 242.733765,503.892334 
	C246.828278,504.936920 251.248184,504.706085 256.507599,505.044434 
z"/>
<path fill="#81919D" opacity="1.000000" stroke="none" 
	d="
M348.738220,192.857819 
	C351.312775,190.249756 353.573669,187.827805 356.237610,184.974091 
	C361.563660,189.372925 364.406342,195.151596 363.840332,202.125748 
	C363.155853,210.559555 358.788269,216.756149 350.757050,220.015808 
	C349.231110,220.635147 347.262695,220.611786 346.119904,221.602112 
	C344.971619,222.597153 343.775726,224.721176 344.116058,225.920364 
	C344.463165,227.143387 346.731506,228.707809 348.022278,228.592758 
	C350.752441,228.349350 353.393799,227.109146 356.107788,226.266556 
	C369.673615,239.113663 364.745209,265.178467 347.353271,271.698212 
	C346.225342,272.121033 344.337860,271.405151 343.165833,270.653931 
	C339.843536,268.524506 336.917877,265.664307 333.407562,263.990356 
	C331.800842,263.224182 328.099274,263.842346 327.263092,265.103088 
	C325.585663,267.632202 327.758972,269.455078 330.261688,270.760193 
	C344.366486,278.115570 348.221588,293.780212 338.591309,305.424713 
	C333.260742,311.870178 326.246307,314.537445 317.713257,313.247192 
	C314.819153,312.809570 313.819550,311.416656 313.113983,308.972015 
	C312.432831,306.612061 311.843872,303.994293 310.372772,302.167603 
	C309.221680,300.738312 306.783569,300.345490 304.917328,299.492126 
	C304.543396,301.507172 303.679199,303.581390 303.913422,305.523071 
	C304.243225,308.257050 305.885742,310.854584 306.094635,313.577393 
	C306.890320,323.947906 299.132538,332.508789 288.950623,332.890656 
	C279.224152,333.255432 270.979584,325.150574 270.972717,314.902496 
	C270.927429,247.267197 270.966736,179.631851 270.900024,111.996590 
	C270.894623,106.508011 273.083405,102.625221 278.106079,100.672234 
	C282.482300,98.970619 286.617523,99.786263 290.039856,103.198326 
	C293.574921,106.722763 294.334900,111.500717 291.963226,116.540993 
	C290.727905,119.166245 289.736115,121.804138 292.946625,123.401375 
	C296.332214,125.085686 297.555817,122.075127 298.947784,119.842049 
	C299.210052,119.421280 299.377869,118.942703 299.605988,118.499405 
	C300.762085,116.252815 301.412262,113.330757 303.230682,111.959747 
	C304.964386,110.652618 307.974365,110.422966 310.325012,110.666756 
	C316.923004,111.351036 322.195160,116.719292 322.974854,122.924202 
	C323.761719,129.186295 322.070190,131.819321 316.007935,133.818649 
	C314.749756,134.233582 313.162903,134.383575 312.344971,135.243195 
	C310.832703,136.832504 308.453522,139.165558 308.797302,140.636887 
	C309.596954,144.059143 312.562531,143.303604 315.312469,142.296448 
	C318.085083,141.281021 320.983276,140.259659 323.890503,140.021133 
	C336.386871,138.995834 346.236938,144.572586 351.174377,155.117355 
	C356.115448,165.669876 353.914307,176.741348 345.434906,185.900955 
	C344.106659,187.335709 343.948944,189.854050 343.250000,191.871338 
	C344.974823,192.262207 346.699707,192.653076 348.738220,192.857819 
M288.050262,210.422470 
	C288.646088,214.182068 289.036743,217.989990 289.907379,221.684845 
	C290.523254,224.298599 290.180511,225.826523 287.693542,227.352661 
	C282.135590,230.763290 279.260895,236.152451 278.119812,242.462463 
	C277.609070,245.286926 277.965576,248.170166 281.320923,248.763260 
	C284.722443,249.364487 285.726044,246.968155 286.171753,243.921005 
	C286.897003,238.962265 289.115326,234.902863 293.715393,233.163269 
	C297.446655,237.302689 300.569366,241.464661 304.379883,244.853104 
	C313.043610,252.557114 323.425751,256.190338 335.004852,255.858627 
	C336.703644,255.809967 338.729340,254.196243 339.841522,252.728897 
	C340.318359,252.099747 339.203827,249.559723 338.150482,248.684128 
	C337.196838,247.891388 335.347412,248.071289 333.885223,248.011627 
	C320.940735,247.483490 310.405975,242.278793 303.044464,231.527512 
	C296.310638,221.692978 294.429138,210.939484 297.594147,199.241730 
	C298.065247,197.500610 296.735199,193.972931 295.281952,193.281281 
	C292.271423,191.848450 290.412506,194.166046 289.912567,197.243744 
	C289.249847,201.323334 288.666351,205.415787 288.050262,210.422470 
M330.329712,156.659485 
	C329.455536,157.418198 328.550568,158.144501 327.712128,158.940872 
	C322.246277,164.132401 315.265869,165.490082 308.889160,162.579788 
	C302.397888,159.617203 298.159363,153.461166 299.241058,146.161972 
	C299.852264,142.037613 302.993958,138.336182 304.595764,134.286026 
	C305.198029,132.763184 305.358093,130.031158 304.472351,129.230667 
	C303.489777,128.342697 300.565399,128.333313 299.407501,129.188416 
	C297.349152,130.708481 295.603302,132.975159 294.432312,135.286926 
	C293.133423,137.851181 291.513824,138.745422 288.708862,139.066666 
	C282.261475,139.805038 277.241577,143.207504 273.645111,148.623611 
	C272.020233,151.070587 270.429840,153.763962 273.661102,156.005112 
	C276.917236,158.263504 278.459198,155.397186 279.903595,153.219376 
	C282.525055,149.266800 285.969727,147.013519 290.847290,146.815765 
	C291.266449,149.064529 291.539581,150.865768 291.942841,152.637390 
	C294.101349,162.120087 300.144196,168.198212 309.249207,170.793198 
	C318.871124,173.535538 327.322815,170.788864 334.049011,163.354767 
	C335.021332,162.280121 336.018250,159.901749 335.499634,159.101852 
	C334.630096,157.760635 332.550537,157.203888 330.329712,156.659485 
M311.498138,211.190094 
	C310.665192,214.032669 309.258942,216.866058 309.213135,219.721283 
	C309.185425,221.449249 311.266144,223.211044 312.399567,224.957657 
	C313.929199,223.571579 315.495026,222.221832 316.955719,220.766510 
	C317.224335,220.498886 317.013580,219.792404 317.113464,219.306854 
	C318.998169,210.142838 326.519470,206.196716 334.944214,209.919022 
	C340.589355,212.413193 346.367554,212.728714 351.671906,209.467209 
	C353.480225,208.355331 355.630402,205.196976 355.216187,203.597168 
	C354.257355,199.893631 351.161560,200.912033 348.310303,202.175262 
	C341.968933,204.984741 335.509430,202.841919 331.966644,196.909653 
	C331.205933,195.635849 331.028320,193.816956 329.994446,192.949493 
	C328.467285,191.668137 326.413910,191.013962 324.584564,190.092682 
	C323.897003,191.900833 322.813477,193.673462 322.647095,195.528366 
	C322.513824,197.013916 323.494629,198.599365 323.583984,198.882507 
	C319.285522,203.188522 315.602295,206.878265 311.498138,211.190094 
M283.386963,266.630524 
	C284.963898,284.429993 296.256927,296.562317 311.653625,297.130829 
	C314.542877,297.237488 317.498230,297.085663 317.750092,293.687134 
	C318.016754,290.089722 314.932587,289.783661 312.032776,288.923828 
	C307.402496,287.550873 302.316650,286.068359 298.760773,283.054352 
	C290.897339,276.389282 290.066620,267.474487 293.515900,258.053680 
	C294.512177,255.332611 295.040833,252.539047 291.754059,251.306610 
	C288.507416,250.089233 286.778198,252.415756 285.981995,255.197266 
	C284.983490,258.685364 284.281769,262.258362 283.386963,266.630524 
z"/>
<path fill="#81919D" opacity="1.000000" stroke="none" 
	d="
M243.441925,153.821671 
	C243.379364,169.480591 243.274063,185.139465 243.262756,200.798416 
	C243.235703,238.290100 243.274292,275.781860 243.237686,313.273529 
	C243.228073,323.116425 238.849289,329.551971 230.704849,332.048615 
	C223.592163,334.228912 217.505493,332.276001 212.527725,327.053955 
	C207.442932,321.719666 206.753006,315.326172 209.028336,308.514557 
	C209.444473,307.268738 210.702621,306.119720 210.669586,304.951569 
	C210.619995,303.198608 209.772568,301.468201 209.264404,299.728210 
	C207.578842,300.256531 205.187057,300.274750 204.358429,301.421997 
	C202.756470,303.639954 201.653809,306.409821 201.056488,309.108612 
	C200.450089,311.848480 199.106689,312.872650 196.502747,313.431213 
	C187.187820,315.429382 176.593231,309.867706 172.407883,300.553406 
	C168.096710,290.959106 171.414719,278.893524 180.042252,273.048920 
	C181.683014,271.937439 183.857086,271.417664 185.137039,270.027954 
	C186.259796,268.808960 186.473297,266.752533 187.088425,265.065979 
	C185.386871,264.467651 183.147995,262.868927 182.076874,263.444305 
	C177.456345,265.926208 173.178009,269.045166 168.220612,272.295868 
	C149.940659,266.324982 143.814224,241.198318 158.008591,226.339645 
	C160.165192,227.013458 162.357971,228.221710 164.551773,228.223587 
	C166.409683,228.225189 169.205750,227.322296 169.925400,225.949066 
	C171.276230,223.371399 169.222321,221.702286 166.612762,221.074768 
	C158.473526,219.117538 153.166306,214.219604 150.912033,206.087921 
	C148.558670,197.598831 151.544128,190.891235 157.797409,184.806412 
	C159.703247,187.012848 161.298645,189.099121 163.146194,190.931107 
	C164.971008,192.740555 166.976532,195.443649 169.830475,192.782043 
	C172.715668,190.091339 170.747253,187.875076 168.600220,185.664429 
	C158.909851,175.686920 157.641449,161.996735 165.273193,151.072495 
	C172.384979,140.892517 185.526489,136.986115 197.150269,141.583542 
	C198.529861,142.129211 199.983185,143.095184 201.320953,142.973267 
	C202.726547,142.845184 204.713135,141.935379 205.190659,140.826599 
	C205.652863,139.753418 204.964874,137.411087 203.987625,136.660294 
	C202.206909,135.292191 199.888992,134.541519 197.705688,133.795013 
	C191.922104,131.817535 189.839828,128.220428 191.133163,122.113541 
	C192.508362,115.620255 198.979675,110.216858 205.545715,110.507835 
	C209.648682,110.689667 213.639328,111.581665 213.955307,116.975632 
	C213.983643,117.459351 214.125854,117.985336 214.371002,118.399445 
	C215.899750,120.981880 216.727509,125.209862 220.927994,123.481003 
	C224.920883,121.837578 222.827972,118.701912 221.692734,115.866066 
	C219.897430,111.381310 220.300568,107.059464 223.804504,103.382683 
	C227.144943,99.877480 231.278488,99.001488 235.673752,100.587067 
	C240.273727,102.246513 243.097260,105.692917 243.139313,110.757866 
	C243.251373,124.253189 243.215988,137.749741 243.000275,151.534088 
	C238.942673,148.044113 235.745728,142.620117 231.154892,140.885773 
	C224.784286,138.479095 219.449280,136.075455 215.883133,129.988007 
	C215.175262,128.779633 211.172256,128.208420 209.639175,129.058136 
	C206.839951,130.609604 208.295929,133.005371 209.800217,135.365143 
	C211.875977,138.621429 214.200775,142.165329 214.769409,145.841187 
	C215.883850,153.045395 211.816666,159.288010 205.331192,162.343475 
	C198.667816,165.482773 192.469955,164.289825 186.245163,158.502792 
	C184.166885,156.570694 182.124313,154.665512 179.441483,157.204453 
	C176.519424,159.969803 178.511047,162.256332 180.554245,164.415344 
	C193.397293,177.986252 216.384506,172.659393 221.946243,154.773010 
	C222.713654,152.305054 223.014633,149.692032 223.831451,145.669067 
	C227.416565,148.193436 230.930786,149.809998 233.241425,152.471481 
	C238.224304,158.210983 238.099304,158.449020 243.441925,153.821671 
M216.393066,237.844971 
	C217.592743,236.142746 218.792404,234.440506 220.035461,232.676727 
	C224.944931,235.423920 227.356781,239.216324 227.937149,244.123428 
	C228.277542,247.001648 229.579605,249.501129 232.438293,248.607681 
	C234.044357,248.105698 235.840408,244.993576 235.817581,243.078079 
	C235.736771,236.300705 232.049271,231.069824 226.644745,227.348236 
	C224.093658,225.591537 224.108887,224.061951 224.306458,221.260422 
	C224.848846,213.569702 224.869705,205.811951 224.534912,198.105148 
	C224.408356,195.191650 222.865356,191.784042 218.777664,193.036255 
	C215.084610,194.167587 216.023941,197.101929 216.734619,200.059616 
	C222.681747,224.810059 205.227753,247.329803 179.724609,247.905289 
	C176.879089,247.969513 174.050964,248.071594 174.032654,251.777573 
	C174.013199,255.719635 176.999710,256.061218 180.018082,255.981018 
	C194.667511,255.591812 206.667160,249.758316 216.393066,237.844971 
M203.350204,212.431549 
	C199.272644,207.868958 195.195099,203.306381 190.747330,198.329544 
	C190.792282,198.214798 191.424393,197.015594 191.712692,195.738754 
	C191.961823,194.635452 192.252579,193.176941 191.745956,192.356415 
	C191.053635,191.235062 189.219757,189.621033 188.586487,189.890381 
	C186.846313,190.630554 184.827667,191.938980 184.068771,193.560532 
	C179.817184,202.645004 174.107559,205.031113 164.753815,201.776611 
	C163.167358,201.224609 160.875229,202.700775 158.909119,203.239929 
	C159.714828,205.144165 159.982300,207.877228 161.418793,208.810043 
	C167.860184,212.992798 174.768921,212.648041 181.167694,208.751434 
	C183.927200,207.070999 186.049622,207.380844 188.523941,208.568222 
	C193.553192,210.981705 196.277115,214.888138 197.242996,220.475342 
	C197.535889,222.169556 200.014786,223.485855 201.492432,224.975250 
	C202.679474,223.284332 204.568634,221.708633 204.869934,219.872375 
	C205.220367,217.736618 204.179886,215.372635 203.350204,212.431549 
M209.449707,287.178955 
	C206.904861,287.815735 204.209320,288.120636 201.859833,289.187561 
	C199.736969,290.151642 196.576584,291.777679 196.379059,293.414185 
	C195.981995,296.703522 199.035706,297.218140 201.999115,297.149109 
	C222.554626,296.670380 236.538330,274.007019 227.968460,254.995239 
	C226.785522,252.370972 225.216721,249.999146 222.008636,251.320816 
	C218.861877,252.617233 219.297546,255.242615 220.351822,258.045746 
	C224.919998,270.191772 221.342529,280.173553 209.449707,287.178955 
z"/>
<path fill="#FDC34C" opacity="1.000000" stroke="none" 
	d="
M347.847504,305.872009 
	C351.509918,297.344391 352.422272,288.674622 348.891266,279.944153 
	C373.327301,267.650421 377.661285,240.853607 363.891785,223.006546 
	C366.485443,216.284943 369.717621,210.409393 370.947601,204.140961 
	C372.840942,194.491440 368.932098,186.288391 361.895844,179.482605 
	C360.832916,178.454514 359.911407,176.410324 360.143494,175.043091 
	C363.950531,152.618439 353.557831,137.306122 331.146973,132.597336 
	C330.843628,132.533600 330.583374,132.264954 330.304382,132.089783 
	C329.859039,108.649529 321.095123,100.535858 299.878754,104.286636 
	C296.772461,98.548195 292.552216,94.039764 285.533539,92.755859 
	C274.024536,90.650543 263.377747,99.009300 263.023438,110.794113 
	C262.898254,114.956810 263.001495,119.126381 263.001495,123.292816 
	C263.001343,185.622665 263.151062,247.953140 262.885345,310.281860 
	C262.826447,324.095520 267.565125,334.110596 281.034149,339.408325 
	C279.289886,346.702057 277.580109,353.851593 275.849243,361.089386 
	C263.857330,361.089386 252.366180,361.195679 240.882904,360.942963 
	C239.576675,360.914215 237.545364,359.084167 237.165588,357.722504 
	C235.522827,351.832733 234.369095,345.806549 232.969833,339.526428 
	C234.078232,338.974579 235.226593,338.417358 236.362198,337.835236 
	C245.815445,332.989136 250.910202,325.139221 250.930115,314.634918 
	C251.058014,247.138931 251.012344,179.642578 250.977020,112.146378 
	C250.972260,103.040977 245.574081,95.504089 237.656204,93.092888 
	C228.950516,90.441780 221.026154,93.679688 215.348175,101.944496 
	C214.642990,102.970963 212.787338,104.014671 211.667892,103.828568 
	C192.887131,100.706245 181.265228,112.089310 183.946991,131.148148 
	C183.967712,131.295456 183.857437,131.461197 183.644287,132.143143 
	C181.885117,132.543076 179.824066,132.911148 177.821106,133.482697 
	C159.881363,138.602036 149.729523,155.838638 153.660736,174.149368 
	C153.978546,175.629654 153.581833,177.877792 152.609055,178.927917 
	C139.420853,193.164734 138.879211,205.483582 150.962967,221.526474 
	C136.393143,246.271408 141.351639,267.390717 164.986938,279.572388 
	C162.293182,287.317078 162.003738,295.246643 164.810150,303.484314 
	C163.400162,302.684357 162.079086,301.630463 161.209763,300.284729 
	C140.174072,267.720734 132.479782,231.895782 136.280151,193.642731 
	C138.538239,170.913681 145.331299,149.383560 157.164413,129.645523 
	C171.287811,106.087242 189.870132,87.319138 215.414917,76.295174 
	C222.087341,73.415657 229.138840,71.414597 236.016251,69.010086 
	C246.078781,68.492050 256.137604,67.704262 266.205353,67.566483 
	C271.468292,67.494453 276.746826,68.564964 282.609619,69.608948 
	C284.242249,70.595200 285.237915,71.250839 286.331604,71.565460 
	C312.209045,79.009315 332.165161,94.945511 347.898071,116.093719 
	C371.028015,147.184982 380.240906,182.483093 378.145721,221.113449 
	C376.814636,245.655457 370.632904,268.657135 358.835999,290.109802 
	C355.767120,295.690491 351.541718,300.635193 347.847504,305.872009 
z"/>
<path fill="#FCAA05" opacity="1.000000" stroke="none" 
	d="
M235.587280,68.982880 
	C229.138840,71.414597 222.087341,73.415657 215.414917,76.295174 
	C189.870132,87.319138 171.287811,106.087242 157.164413,129.645523 
	C145.331299,149.383560 138.538239,170.913681 136.280151,193.642731 
	C132.479782,231.895782 140.174072,267.720734 161.209763,300.284729 
	C162.079086,301.630463 163.400162,302.684357 164.864426,303.876801 
	C165.218079,303.879364 165.148270,303.911346 165.095001,304.212769 
	C165.354660,305.070526 165.667572,305.626831 165.980499,306.183167 
	C166.919342,307.203827 167.858170,308.224518 169.006927,309.772247 
	C169.467407,310.550140 169.717972,310.800995 169.968536,311.051819 
	C169.968536,311.051819 169.970139,311.023834 170.033249,311.324829 
	C170.514542,312.056335 170.932739,312.486847 171.350937,312.917328 
	C171.350937,312.917328 171.081161,312.916382 171.215546,313.059937 
	C171.681168,313.423035 172.012421,313.642639 172.343674,313.862213 
	C172.343674,313.862213 172.111343,313.840546 172.235046,314.015381 
	C172.708038,314.365143 173.057327,314.540100 173.406631,314.715057 
	C173.406631,314.715057 173.397354,314.539276 173.344208,314.894531 
	C173.829056,316.432159 174.192169,317.738708 174.930634,318.778687 
	C192.557175,343.602753 200.865051,371.321350 201.125793,401.663391 
	C201.149231,404.391266 203.009689,407.103333 204.017029,409.822754 
	C191.231339,410.543488 190.234146,409.529694 190.003586,397.146667 
	C189.382889,363.811005 175.925308,335.889923 153.325439,312.085724 
	C134.259262,292.003479 121.102081,268.818695 115.724289,241.600388 
	C106.733665,196.096741 116.759445,155.068695 146.321167,119.250404 
	C168.470795,92.412933 197.135971,76.154915 231.189789,69.310791 
	C232.484131,69.050652 233.834198,69.067757 235.587280,68.982880 
z"/>
<path fill="#FBCB76" opacity="1.000000" stroke="none" 
	d="
M347.879761,305.881989 
	C351.541718,300.635193 355.767120,295.690491 358.835999,290.109802 
	C370.632904,268.657135 376.814636,245.655457 378.145721,221.113449 
	C380.240906,182.483093 371.028015,147.184982 347.898071,116.093719 
	C332.165161,94.945511 312.209045,79.009315 286.331604,71.565460 
	C285.237915,71.250839 284.242249,70.595200 282.918701,69.793770 
	C340.324341,79.405434 388.612823,126.293373 398.733185,183.555573 
	C407.371063,232.429688 395.111542,275.711212 360.602020,311.925262 
	C342.790497,330.616486 329.929504,351.793091 325.544769,377.474396 
	C324.323090,384.630005 324.166534,392.002502 323.961151,399.287903 
	C323.695526,408.710968 322.617249,410.013947 313.425751,409.999664 
	C312.592590,409.998383 311.759430,409.986328 310.674957,409.608429 
	C311.281616,406.343475 312.903351,403.443146 312.879944,400.556183 
	C312.634888,370.297607 321.156921,342.914612 339.023926,318.448090 
	C339.808777,317.373322 339.974365,315.846344 340.428406,314.530029 
	C340.428436,314.530029 340.484283,314.521423 340.778320,314.493958 
	C341.283325,314.170380 341.494263,313.874237 341.705200,313.578094 
	C341.705200,313.578094 341.732117,313.728363 341.939880,313.651306 
	C342.360870,313.264374 342.574066,312.954498 342.787231,312.644592 
	C342.787231,312.644592 342.800781,312.818909 343.003845,312.718109 
	C343.495056,312.111359 343.783173,311.605377 344.071289,311.099426 
	C344.071289,311.099426 344.023499,311.030579 344.269745,310.908386 
	C344.767090,310.560333 344.935638,310.284088 345.021576,309.957458 
	C344.998047,309.619537 345.117065,309.342957 345.836914,308.894897 
	C346.446503,308.321320 346.597839,307.980591 346.749146,307.639862 
	C346.749176,307.639862 346.762421,307.816406 346.977722,307.685669 
	C347.426331,306.979218 347.659607,306.403503 347.892883,305.827789 
	C347.892883,305.827789 347.911987,305.891968 347.879761,305.881989 
z"/>
<path fill="#FCAA03" opacity="1.000000" stroke="none" 
	d="
M270.986786,368.958496 
	C274.311676,368.958923 277.139709,368.942291 279.967468,368.963257 
	C286.153046,369.009125 289.838715,371.578430 290.199860,377.997467 
	C290.785187,388.400452 290.357483,398.860443 290.357483,409.637268 
	C268.123871,409.637268 245.946609,409.637268 223.335876,409.637268 
	C223.335876,399.133545 222.975311,388.698700 223.484146,378.306458 
	C223.748688,372.903259 227.299698,368.582703 234.562805,368.843079 
	C246.524475,369.271912 258.512756,368.958832 270.986786,368.958496 
z"/>
<path fill="#FCC24C" opacity="1.000000" stroke="none" 
	d="
M204.471252,409.890137 
	C203.009689,407.103333 201.149231,404.391266 201.125793,401.663391 
	C200.865051,371.321350 192.557175,343.602753 174.930634,318.778687 
	C174.192169,317.738708 173.829056,316.432159 173.432068,314.889282 
	C181.547119,320.618652 190.513718,322.377716 200.340256,320.350159 
	C204.064667,331.803314 211.207260,338.918610 223.403915,340.203949 
	C224.302231,340.298615 225.518753,341.774139 225.777786,342.810089 
	C227.294281,348.875122 228.569687,355.000427 229.916138,361.059082 
	C219.094589,365.579163 215.788055,370.616852 215.739624,382.556976 
	C215.703323,391.506439 215.732452,400.456207 215.732452,409.957550 
	C211.802551,409.957550 208.363998,409.957550 204.471252,409.890137 
z"/>
<path fill="#FDC24C" opacity="1.000000" stroke="none" 
	d="
M340.133118,314.693787 
	C339.974365,315.846344 339.808777,317.373322 339.023926,318.448090 
	C321.156921,342.914612 312.634888,370.297607 312.879944,400.556183 
	C312.903351,403.443146 311.281616,406.343475 310.230652,409.535431 
	C306.714783,409.881378 303.391937,409.944885 300.068878,409.959778 
	C299.609192,409.961853 299.148438,409.723602 298.167297,409.452911 
	C298.167297,400.085175 298.232239,390.648651 298.150055,381.213440 
	C298.057526,370.586884 294.058777,364.927856 283.987854,361.222443 
	C285.369781,355.026642 286.674774,348.755371 288.249603,342.552582 
	C288.495636,341.583466 289.903107,340.325226 290.886230,340.216064 
	C302.883484,338.884430 309.850586,331.801788 313.577362,320.538635 
	C323.065308,322.133179 332.045105,321.102417 340.133118,314.693787 
z"/>
<path fill="#CDCDCD" opacity="1.000000" stroke="none" 
	d="
M222.004761,460.800323 
	C217.845749,460.800262 214.184113,460.859344 210.525894,460.773254 
	C208.881287,460.734558 207.207504,460.557922 205.609299,460.180206 
	C200.664948,459.011688 197.660049,455.350891 198.031708,451.144226 
	C198.399902,446.977112 202.113098,443.509308 206.812408,443.039520 
	C208.130997,442.907684 209.472198,442.994232 210.803040,442.994171 
	C241.582306,442.992645 272.361572,442.992950 303.140839,442.993103 
	C304.139069,442.993103 305.139160,442.955811 306.135254,443.002319 
	C311.423553,443.249023 315.518036,446.672821 315.937714,451.174042 
	C316.329956,455.380737 312.960541,459.288666 307.801971,460.330841 
	C305.869934,460.721161 303.846222,460.779694 301.864105,460.781769 
	C275.410614,460.809509 248.957077,460.800323 222.004761,460.800323 
z"/>
<path fill="#D1D1D1" opacity="1.000000" stroke="none" 
	d="
M315.033264,429.804718 
	C312.728027,433.804230 309.464050,435.128052 305.291595,435.120209 
	C273.002045,435.059540 240.712265,435.105774 208.422638,435.066437 
	C202.399475,435.059082 198.168274,431.528931 198.015854,426.669952 
	C197.864014,421.829102 202.057358,417.838287 207.998779,417.821930 
	C240.620804,417.732208 273.243439,417.708801 305.865265,417.829590 
	C313.351288,417.857300 316.974670,422.712738 315.033264,429.804718 
z"/>
<path fill="#CDCDCD" opacity="1.000000" stroke="none" 
	d="
M242.000000,484.052002 
	C231.510941,484.050812 221.521774,484.079529 211.532883,484.036560 
	C206.059784,484.013031 202.469086,480.942657 202.374100,476.356720 
	C202.280075,471.817169 205.861588,468.286407 211.300583,468.269958 
	C241.766937,468.177887 272.233856,468.177277 302.700165,468.270630 
	C308.136169,468.287262 311.716217,471.828094 311.620667,476.370728 
	C311.524902,480.922699 307.891998,484.027679 302.434296,484.036438 
	C282.456238,484.068512 262.478119,484.050903 242.000000,484.052002 
z"/>
<path fill="#0B0D0E" opacity="1.000000" stroke="none" 
	d="
M243.578979,153.681915 
	C238.099304,158.449020 238.224304,158.210983 233.241425,152.471481 
	C230.930786,149.809998 227.416565,148.193436 223.831451,145.669067 
	C223.014633,149.692032 222.713654,152.305054 221.946243,154.773010 
	C216.384506,172.659393 193.397293,177.986252 180.554245,164.415344 
	C178.511047,162.256332 176.519424,159.969803 179.441483,157.204453 
	C182.124313,154.665512 184.166885,156.570694 186.245163,158.502792 
	C192.469955,164.289825 198.667816,165.482773 205.331192,162.343475 
	C211.816666,159.288010 215.883850,153.045395 214.769409,145.841187 
	C214.200775,142.165329 211.875977,138.621429 209.800217,135.365143 
	C208.295929,133.005371 206.839951,130.609604 209.639175,129.058136 
	C211.172256,128.208420 215.175262,128.779633 215.883133,129.988007 
	C219.449280,136.075455 224.784286,138.479095 231.154892,140.885773 
	C235.745728,142.620117 238.942673,148.044113 243.078613,152.008392 
	C243.502609,152.643661 243.609314,153.092911 243.578979,153.681915 
z"/>
<path fill="#F06C73" opacity="1.000000" stroke="none" 
	d="
M256.015228,505.044434 
	C251.248184,504.706085 246.828278,504.936920 242.733765,503.892334 
	C236.982666,502.425110 233.062088,498.451660 231.158066,492.250183 
	C248.450638,492.250183 265.478424,492.250183 282.488617,492.250183 
	C281.046295,499.148041 274.569916,504.572876 266.984680,504.971436 
	C263.500641,505.154541 260.000458,505.029663 256.015228,505.044434 
z"/>
<path fill="#FCC24C" opacity="1.000000" stroke="none" 
	d="
M171.305573,312.606323 
	C170.932739,312.486847 170.514542,312.056335 170.019470,311.322327 
	C170.381790,311.444305 170.820984,311.869812 171.305573,312.606323 
z"/>
<path fill="#FDC24C" opacity="1.000000" stroke="none" 
	d="
M343.807220,311.222229 
	C343.783173,311.605377 343.495056,312.111359 342.916901,312.709290 
	C342.932281,312.315857 343.237701,311.830444 343.807220,311.222229 
z"/>
<path fill="#FDC34C" opacity="1.000000" stroke="none" 
	d="
M347.610901,305.959595 
	C347.659607,306.403503 347.426331,306.979218 346.889832,307.675079 
	C346.834076,307.227264 347.081512,306.659332 347.610901,305.959595 
z"/>
<path fill="#FDC34C" opacity="1.000000" stroke="none" 
	d="
M166.055878,305.839630 
	C165.667572,305.626831 165.354660,305.070526 165.065613,304.188080 
	C165.436752,304.406677 165.783997,304.951385 166.055878,305.839630 
z"/>
<path fill="#FCC24C" opacity="1.000000" stroke="none" 
	d="
M169.892227,310.784790 
	C169.717972,310.800995 169.467407,310.550140 169.084045,310.063599 
	C169.239471,310.057861 169.527695,310.287781 169.892227,310.784790 
z"/>
<path fill="#FDC24C" opacity="1.000000" stroke="none" 
	d="
M344.785126,310.062225 
	C344.935638,310.284088 344.767090,310.560333 344.310150,310.919495 
	C344.252441,310.757538 344.400543,310.462250 344.785126,310.062225 
z"/>
<path fill="#FCC24C" opacity="1.000000" stroke="none" 
	d="
M172.288162,313.538055 
	C172.012421,313.642639 171.681168,313.423035 171.222778,312.925232 
	C171.474655,312.835938 171.853653,313.024933 172.288162,313.538055 
z"/>
<path fill="#FDC24C" opacity="1.000000" stroke="none" 
	d="
M342.513550,312.728088 
	C342.574066,312.954498 342.360870,313.264374 341.864075,313.642639 
	C341.800262,313.411224 342.020050,313.111389 342.513550,312.728088 
z"/>
<path fill="#FCC24C" opacity="1.000000" stroke="none" 
	d="
M173.333984,314.408752 
	C173.057327,314.540100 172.708038,314.365143 172.256500,313.900696 
	C172.523285,313.774933 172.892303,313.938690 173.333984,314.408752 
z"/>
<path fill="#FDC24C" opacity="1.000000" stroke="none" 
	d="
M341.455750,313.650146 
	C341.494263,313.874237 341.283325,314.170380 340.784973,314.466492 
	C340.733795,314.218384 340.970062,313.970276 341.455750,313.650146 
z"/>
<path fill="#FDC34C" opacity="1.000000" stroke="none" 
	d="
M346.494598,307.775452 
	C346.597839,307.980591 346.446503,308.321320 346.057343,308.818756 
	C345.959717,308.620636 346.099884,308.265808 346.494598,307.775452 
z"/>
<path fill="#030303" opacity="1.000000" stroke="none" 
	d="
M288.049561,209.962585 
	C288.666351,205.415787 289.249847,201.323334 289.912567,197.243744 
	C290.412506,194.166046 292.271423,191.848450 295.281952,193.281281 
	C296.735199,193.972931 298.065247,197.500610 297.594147,199.241730 
	C294.429138,210.939484 296.310638,221.692978 303.044464,231.527512 
	C310.405975,242.278793 320.940735,247.483490 333.885223,248.011627 
	C335.347412,248.071289 337.196838,247.891388 338.150482,248.684128 
	C339.203827,249.559723 340.318359,252.099747 339.841522,252.728897 
	C338.729340,254.196243 336.703644,255.809967 335.004852,255.858627 
	C323.425751,256.190338 313.043610,252.557114 304.379883,244.853104 
	C300.569366,241.464661 297.446655,237.302689 293.715393,233.163269 
	C289.115326,234.902863 286.897003,238.962265 286.171753,243.921005 
	C285.726044,246.968155 284.722443,249.364487 281.320923,248.763260 
	C277.965576,248.170166 277.609070,245.286926 278.119812,242.462463 
	C279.260895,236.152451 282.135590,230.763290 287.693542,227.352661 
	C290.180511,225.826523 290.523254,224.298599 289.907379,221.684845 
	C289.036743,217.989990 288.646088,214.182068 288.049561,209.962585 
z"/>
<path fill="#030404" opacity="1.000000" stroke="none" 
	d="
M330.654907,156.488266 
	C332.550537,157.203888 334.630096,157.760635 335.499634,159.101852 
	C336.018250,159.901749 335.021332,162.280121 334.049011,163.354767 
	C327.322815,170.788864 318.871124,173.535538 309.249207,170.793198 
	C300.144196,168.198212 294.101349,162.120087 291.942841,152.637390 
	C291.539581,150.865768 291.266449,149.064529 290.847290,146.815765 
	C285.969727,147.013519 282.525055,149.266800 279.903595,153.219376 
	C278.459198,155.397186 276.917236,158.263504 273.661102,156.005112 
	C270.429840,153.763962 272.020233,151.070587 273.645111,148.623611 
	C277.241577,143.207504 282.261475,139.805038 288.708862,139.066666 
	C291.513824,138.745422 293.133423,137.851181 294.432312,135.286926 
	C295.603302,132.975159 297.349152,130.708481 299.407501,129.188416 
	C300.565399,128.333313 303.489777,128.342697 304.472351,129.230667 
	C305.358093,130.031158 305.198029,132.763184 304.595764,134.286026 
	C302.993958,138.336182 299.852264,142.037613 299.241058,146.161972 
	C298.159363,153.461166 302.397888,159.617203 308.889160,162.579788 
	C315.265869,165.490082 322.246277,164.132401 327.712128,158.940872 
	C328.550568,158.144501 329.455536,157.418198 330.654907,156.488266 
z"/>
<path fill="#030404" opacity="1.000000" stroke="none" 
	d="
M311.708618,210.879044 
	C315.602295,206.878265 319.285522,203.188522 323.583984,198.882507 
	C323.494629,198.599365 322.513824,197.013916 322.647095,195.528366 
	C322.813477,193.673462 323.897003,191.900833 324.584595,190.092682 
	C326.413910,191.013962 328.467285,191.668137 329.994446,192.949493 
	C331.028320,193.816956 331.205933,195.635849 331.966644,196.909653 
	C335.509430,202.841919 341.968933,204.984741 348.310303,202.175262 
	C351.161560,200.912033 354.257355,199.893631 355.216187,203.597168 
	C355.630402,205.196976 353.480225,208.355331 351.671906,209.467209 
	C346.367554,212.728714 340.589355,212.413193 334.944214,209.919022 
	C326.519470,206.196716 318.998169,210.142838 317.113464,219.306854 
	C317.013580,219.792404 317.224335,220.498886 316.955719,220.766510 
	C315.495026,222.221832 313.929199,223.571579 312.399567,224.957642 
	C311.266144,223.211044 309.185425,221.449249 309.213135,219.721283 
	C309.258942,216.866058 310.665192,214.032669 311.708618,210.879044 
z"/>
<path fill="#040405" opacity="1.000000" stroke="none" 
	d="
M283.419464,266.212646 
	C284.281769,262.258362 284.983490,258.685364 285.981995,255.197266 
	C286.778198,252.415756 288.507416,250.089233 291.754059,251.306610 
	C295.040833,252.539047 294.512177,255.332611 293.515900,258.053680 
	C290.066620,267.474487 290.897339,276.389282 298.760773,283.054352 
	C302.316650,286.068359 307.402496,287.550873 312.032776,288.923828 
	C314.932587,289.783661 318.016754,290.089722 317.750092,293.687134 
	C317.498230,297.085663 314.542877,297.237488 311.653625,297.130829 
	C296.256927,296.562317 284.963898,284.429993 283.419464,266.212646 
z"/>
<path fill="#030303" opacity="1.000000" stroke="none" 
	d="
M216.184692,238.134186 
	C206.667160,249.758316 194.667511,255.591812 180.018082,255.981018 
	C176.999710,256.061218 174.013199,255.719635 174.032654,251.777573 
	C174.050964,248.071594 176.879089,247.969513 179.724609,247.905289 
	C205.227753,247.329803 222.681747,224.810059 216.734619,200.059616 
	C216.023941,197.101929 215.084610,194.167587 218.777664,193.036255 
	C222.865356,191.784042 224.408356,195.191650 224.534912,198.105148 
	C224.869705,205.811951 224.848846,213.569702 224.306458,221.260422 
	C224.108887,224.061951 224.093658,225.591537 226.644745,227.348236 
	C232.049271,231.069824 235.736771,236.300705 235.817581,243.078079 
	C235.840408,244.993576 234.044357,248.105698 232.438293,248.607681 
	C229.579605,249.501129 228.277542,247.001648 227.937149,244.123428 
	C227.356781,239.216324 224.944931,235.423920 220.035461,232.676727 
	C218.792404,234.440506 217.592743,236.142746 216.184692,238.134186 
z"/>
<path fill="#040404" opacity="1.000000" stroke="none" 
	d="
M203.546616,212.769623 
	C204.179886,215.372635 205.220367,217.736618 204.869934,219.872375 
	C204.568634,221.708633 202.679474,223.284332 201.492432,224.975250 
	C200.014786,223.485855 197.535889,222.169556 197.242996,220.475342 
	C196.277115,214.888138 193.553192,210.981705 188.523941,208.568222 
	C186.049622,207.380844 183.927200,207.070999 181.167694,208.751434 
	C174.768921,212.648041 167.860184,212.992798 161.418793,208.810043 
	C159.982300,207.877228 159.714828,205.144165 158.909119,203.239929 
	C160.875229,202.700775 163.167358,201.224609 164.753815,201.776611 
	C174.107559,205.031113 179.817184,202.645004 184.068771,193.560532 
	C184.827667,191.938980 186.846313,190.630554 188.586487,189.890381 
	C189.219757,189.621033 191.053635,191.235062 191.745956,192.356415 
	C192.252579,193.176941 191.961823,194.635452 191.712692,195.738754 
	C191.424393,197.015594 190.792282,198.214798 190.747330,198.329544 
	C195.195099,203.306381 199.272644,207.868958 203.546616,212.769623 
z"/>
<path fill="#030404" opacity="1.000000" stroke="none" 
	d="
M209.811661,287.054565 
	C221.342529,280.173553 224.919998,270.191772 220.351822,258.045746 
	C219.297546,255.242615 218.861877,252.617233 222.008636,251.320816 
	C225.216721,249.999146 226.785522,252.370972 227.968460,254.995239 
	C236.538330,274.007019 222.554626,296.670380 201.999115,297.149109 
	C199.035706,297.218140 195.981995,296.703522 196.379059,293.414185 
	C196.576584,291.777679 199.736969,290.151642 201.859833,289.187561 
	C204.209320,288.120636 206.904861,287.815735 209.811661,287.054565 
z"/>
</svg>